<svg xmlns="http://www.w3.org/2000/svg" viewBox="0 0 1920 1080"><defs><style>.cls-1{fill:#11121e;}.cls-2{fill:#ff5c0b;}.cls-3{fill:#d6460d;}.cls-4{fill:#822a08;}.cls-5{opacity:0.75;}.cls-6{fill:#fff;}.cls-7{fill:#c6c6c6;}.cls-8{fill:#939393;}.cls-9{fill:#1f7aff;}.cls-10{fill:#1861b7;}.cls-11{fill:#11467a;}.cls-12{fill:#14b202;}.cls-13{fill:#127f03;}.cls-14{fill:#0c5602;}.cls-15{opacity:0.85;}.cls-16{opacity:0.95;}.cls-17{fill:#2ccbe5;}.cls-18{fill:#1b7f89;}.cls-19{fill:#a6e2f7;}.cls-20{fill:#e22d65;}.cls-21{fill:#871b56;}.cls-22{fill:#ff8ab4;}</style></defs><title>wall1</title><g id="Layer_1" data-name="Layer 1"><rect class="cls-1" width="1920" height="1080"/></g><g id="Layer_2" data-name="Layer 2"><polygon class="cls-2" points="1334.68 80.08 1486.62 147.51 1396.17 248.22 1334.68 80.08"/><polygon class="cls-2" points="1548.47 316 1486.98 147.86 1396.53 248.57 1548.47 316"/><path class="cls-2" d="M1487.11,147.87"/><polygon class="cls-3" points="1515.84 226.75 1396.4 248.42 1587.18 36 1565.04 214.9 1515.84 226.75"/><polygon class="cls-4" points="1576.51 122.23 1660.85 61.96 1565.04 214.9 1576.51 122.23"/><polygon class="cls-3" points="1334.66 79.9 1292.5 102.56 1352.1 127.71 1334.66 79.9"/><g class="cls-5"><polygon class="cls-2" points="1225.83 181.02 1261.24 196.73 1240.16 220.2 1225.83 181.02"/><polygon class="cls-2" points="1275.66 236 1261.33 196.81 1240.24 220.28 1275.66 236"/><path class="cls-2" d="M1261.36,196.82"/><polygon class="cls-3" points="1268.05 215.2 1240.22 220.25 1284.68 170.74 1279.52 212.44 1268.05 215.2"/><polygon class="cls-4" points="1282.19 190.84 1301.85 176.79 1279.52 212.44 1282.19 190.84"/><polygon class="cls-3" points="1225.83 180.97 1216 186.25 1229.89 192.12 1225.83 180.97"/></g><g class="cls-5"><polygon class="cls-2" points="1362.83 22.02 1398.24 37.73 1377.16 61.2 1362.83 22.02"/><polygon class="cls-2" points="1412.66 77 1398.33 37.81 1377.24 61.28 1412.66 77"/><path class="cls-2" d="M1398.36,37.82"/><polygon class="cls-3" points="1405.05 56.2 1377.22 61.25 1421.68 11.74 1416.52 53.44 1405.05 56.2"/><polygon class="cls-4" points="1419.19 31.84 1438.85 17.79 1416.52 53.44 1419.19 31.84"/><polygon class="cls-3" points="1362.83 21.97 1353 27.25 1366.89 33.12 1362.83 21.97"/></g><g class="cls-5"><polygon class="cls-2" points="1614.83 206.02 1650.24 221.73 1629.16 245.2 1614.83 206.02"/><polygon class="cls-2" points="1664.66 261 1650.33 221.81 1629.24 245.28 1664.66 261"/><path class="cls-2" d="M1650.36,221.82"/><polygon class="cls-3" points="1657.05 240.2 1629.22 245.25 1673.68 195.74 1668.52 237.44 1657.05 240.2"/><polygon class="cls-4" points="1671.19 215.84 1690.85 201.79 1668.52 237.44 1671.19 215.84"/><polygon class="cls-3" points="1614.83 205.97 1605 211.25 1618.89 217.12 1614.83 205.97"/></g><polygon class="cls-6" points="1650.72 359.96 1774.49 411.24 1703.63 494.2 1650.72 359.96"/><polygon class="cls-6" points="1827.7 545.76 1774.79 411.52 1703.93 494.48 1827.7 545.76"/><path class="cls-6" d="M1774.89,411.53"/><polygon class="cls-7" points="1799.62 474.51 1703.83 494.36 1853.28 319.39 1839.02 463.97 1799.62 474.51"/><polygon class="cls-8" points="1846.41 389.08 1913.15 338.83 1839.02 463.97 1846.41 389.08"/><polygon class="cls-7" points="1650.7 359.81 1617.19 378.92 1665.71 397.98 1650.7 359.81"/><polygon class="cls-6" points="934.72 370.96 1058.49 422.24 987.63 505.2 934.72 370.96"/><polygon class="cls-6" points="1111.7 556.76 1058.79 422.52 987.93 505.48 1111.7 556.76"/><path class="cls-6" d="M1058.89,422.53"/><polygon class="cls-7" points="1083.62 485.51 987.83 505.36 1137.28 330.39 1123.02 474.97 1083.62 485.51"/><polygon class="cls-8" points="1130.41 400.08 1197.15 349.83 1123.02 474.97 1130.41 400.08"/><polygon class="cls-7" points="934.7 370.81 901.19 389.92 949.71 408.98 934.7 370.81"/><polygon class="cls-6" points="1410.4 349.21 1441.41 362.06 1423.66 382.84 1410.4 349.21"/><polygon class="cls-6" points="1454.74 395.76 1441.49 362.13 1423.73 382.91 1454.74 395.76"/><path class="cls-6" d="M1441.51,362.13"/><polygon class="cls-7" points="1447.71 377.91 1423.71 382.88 1461.15 339.04 1457.58 375.27 1447.71 377.91"/><polygon class="cls-8" points="1459.43 356.5 1476.15 343.91 1457.58 375.27 1459.43 356.5"/><polygon class="cls-7" points="1410.4 349.17 1402 353.96 1414.16 358.73 1410.4 349.17"/><g class="cls-5"><polygon class="cls-6" points="987.4 331.21 1018.41 344.06 1000.66 364.84 987.4 331.21"/><polygon class="cls-6" points="1031.74 377.76 1018.49 344.13 1000.73 364.91 1031.74 377.76"/><path class="cls-6" d="M1018.51,344.13"/><polygon class="cls-7" points="1024.71 359.91 1000.71 364.88 1038.15 321.04 1034.58 357.27 1024.71 359.91"/><polygon class="cls-8" points="1036.43 338.5 1053.15 325.91 1034.58 357.27 1036.43 338.5"/><polygon class="cls-7" points="987.4 331.17 979 335.96 991.16 340.73 987.4 331.17"/></g><g class="cls-5"><polygon class="cls-6" points="1159.4 101.21 1190.41 114.06 1172.66 134.84 1159.4 101.21"/><polygon class="cls-6" points="1203.74 147.76 1190.49 114.13 1172.73 134.91 1203.74 147.76"/><path class="cls-6" d="M1190.51,114.13"/><polygon class="cls-7" points="1196.71 129.91 1172.71 134.88 1210.15 91.04 1206.58 127.27 1196.71 129.91"/><polygon class="cls-8" points="1208.43 108.5 1225.15 95.91 1206.58 127.27 1208.43 108.5"/><polygon class="cls-7" points="1159.4 101.17 1151 105.96 1163.16 110.73 1159.4 101.17"/></g><g class="cls-5"><polygon class="cls-6" points="1740.4 308.21 1771.41 321.06 1753.66 341.84 1740.4 308.21"/><polygon class="cls-6" points="1784.74 354.76 1771.49 321.13 1753.73 341.91 1784.74 354.76"/><path class="cls-6" d="M1771.51,321.13"/><polygon class="cls-7" points="1777.71 336.91 1753.71 341.88 1791.15 298.04 1787.58 334.27 1777.71 336.91"/><polygon class="cls-8" points="1789.43 315.5 1806.15 302.91 1787.58 334.27 1789.43 315.5"/><polygon class="cls-7" points="1740.4 308.17 1732 312.96 1744.16 317.73 1740.4 308.17"/></g><polygon class="cls-9" points="1314.72 410.96 1438.49 462.24 1367.63 545.2 1314.72 410.96"/><polygon class="cls-9" points="1491.7 596.76 1438.79 462.52 1367.93 545.48 1491.7 596.76"/><path class="cls-6" d="M1438.89,462.53"/><polygon class="cls-10" points="1463.62 525.51 1367.83 545.36 1517.28 370.39 1503.02 514.97 1463.62 525.51"/><polygon class="cls-11" points="1510.41 440.08 1577.15 389.83 1503.02 514.97 1510.41 440.08"/><polygon class="cls-10" points="1314.7 410.81 1281.19 429.92 1329.71 448.98 1314.7 410.81"/><polygon class="cls-9" points="1039.52 672.31 1093.11 694.51 1062.43 730.43 1039.52 672.31"/><polygon class="cls-9" points="1116.15 752.76 1093.24 694.63 1062.56 730.55 1116.15 752.76"/><path class="cls-6" d="M1093.29,694.64"/><polygon class="cls-10" points="1103.99 721.91 1062.51 730.5 1127.23 654.74 1121.05 717.35 1103.99 721.91"/><polygon class="cls-11" points="1124.25 684.92 1153.15 663.16 1121.05 717.35 1124.25 684.92"/><polygon class="cls-10" points="1039.51 672.24 1025 680.51 1046.01 688.77 1039.51 672.24"/><polygon class="cls-9" points="1789.52 849.31 1843.11 871.51 1812.43 907.43 1789.52 849.31"/><polygon class="cls-9" points="1866.15 929.76 1843.24 871.63 1812.56 907.55 1866.15 929.76"/><path class="cls-6" d="M1843.29,871.64"/><polygon class="cls-10" points="1853.99 898.91 1812.51 907.5 1877.23 831.74 1871.05 894.35 1853.99 898.91"/><polygon class="cls-11" points="1874.25 861.92 1903.15 840.16 1871.05 894.35 1874.25 861.92"/><polygon class="cls-10" points="1789.51 849.24 1775 857.51 1796.01 865.77 1789.51 849.24"/><polygon class="cls-12" points="1309.18 743.68 1480.06 819.51 1378.33 932.77 1309.18 743.68"/><polygon class="cls-12" points="1549.62 1009 1480.47 819.91 1378.73 933.17 1549.62 1009"/><path class="cls-12" d="M1480.6,819.92"/><polygon class="cls-13" points="1512.91 908.63 1378.6 933 1593.15 694.1 1568.24 895.3 1512.91 908.63"/><polygon class="cls-14" points="1581.14 791.08 1676 723.3 1568.24 895.3 1581.14 791.08"/><polygon class="cls-13" points="1309.15 743.47 1261.74 768.96 1328.77 797.24 1309.15 743.47"/><g class="cls-15"><polygon class="cls-12" points="1096.1 903.29 1121.67 914.64 1106.45 931.59 1096.1 903.29"/><polygon class="cls-12" points="1132.09 943 1121.73 914.7 1106.51 931.65 1132.09 943"/><path class="cls-12" d="M1121.76,914.7"/><polygon class="cls-13" points="1126.59 927.98 1106.49 931.63 1138.6 895.87 1134.87 925.98 1126.59 927.98"/><polygon class="cls-14" points="1136.8 910.38 1151 900.24 1134.87 925.98 1136.8 910.38"/><polygon class="cls-13" points="1096.1 903.26 1089 907.07 1099.03 911.31 1096.1 903.26"/></g><g class="cls-15"><polygon class="cls-12" points="1215.1 536.29 1240.67 547.64 1225.45 564.59 1215.1 536.29"/><polygon class="cls-12" points="1251.09 576 1240.73 547.7 1225.51 564.65 1251.09 576"/><path class="cls-12" d="M1240.76,547.7"/><polygon class="cls-13" points="1245.59 560.98 1225.49 564.63 1257.6 528.87 1253.87 558.98 1245.59 560.98"/><polygon class="cls-14" points="1255.8 543.38 1270 533.24 1253.87 558.98 1255.8 543.38"/><polygon class="cls-13" points="1215.1 536.26 1208 540.07 1218.03 544.31 1215.1 536.26"/></g><polygon class="cls-12" points="1559.1 524.29 1584.67 535.64 1569.45 552.59 1559.1 524.29"/><polygon class="cls-12" points="1595.09 564 1584.73 535.7 1569.51 552.65 1595.09 564"/><path class="cls-12" d="M1584.76,535.7"/><polygon class="cls-13" points="1589.59 548.98 1569.49 552.63 1601.6 516.87 1597.87 546.98 1589.59 548.98"/><polygon class="cls-14" points="1599.8 531.38 1614 521.24 1597.87 546.98 1599.8 531.38"/><polygon class="cls-13" points="1559.1 524.26 1552 528.07 1562.03 532.31 1559.1 524.26"/><g class="cls-16"><polygon class="cls-12" points="1821.1 707.29 1846.67 718.64 1831.45 735.59 1821.1 707.29"/><polygon class="cls-12" points="1857.09 747 1846.73 718.7 1831.51 735.65 1857.09 747"/><path class="cls-12" d="M1846.76,718.7"/><polygon class="cls-13" points="1851.59 731.98 1831.49 735.63 1863.6 699.87 1859.87 729.98 1851.59 731.98"/><polygon class="cls-14" points="1861.8 714.38 1876 704.24 1859.87 729.98 1861.8 714.38"/><polygon class="cls-13" points="1821.1 707.26 1814 711.07 1824.03 715.31 1821.1 707.26"/></g><g class="cls-15"><polygon class="cls-12" points="1680.1 913.29 1705.67 924.64 1690.45 941.59 1680.1 913.29"/><polygon class="cls-12" points="1716.09 953 1705.73 924.7 1690.51 941.65 1716.09 953"/><path class="cls-12" d="M1705.76,924.7"/><polygon class="cls-13" points="1710.59 937.98 1690.49 941.63 1722.6 905.87 1718.87 935.98 1710.59 937.98"/><polygon class="cls-14" points="1720.8 920.38 1735 910.24 1718.87 935.98 1720.8 920.38"/><polygon class="cls-13" points="1680.1 913.26 1673 917.07 1683.03 921.31 1680.1 913.26"/></g></g><g id="Layer_3" data-name="Layer 3"><rect class="cls-17" x="101" y="113" width="104" height="104" transform="translate(318 12) rotate(90)"/><rect class="cls-18" y="113" width="104" height="104" transform="translate(217 113) rotate(90)"/><rect class="cls-17" x="306" y="112" width="104" height="104" transform="translate(522 -194) rotate(90)"/><rect class="cls-18" x="410" y="112" width="104" height="104" transform="translate(626 -298) rotate(90)"/><rect class="cls-17" y="215" width="104" height="104" transform="translate(319 215) rotate(90)"/><rect class="cls-18" x="104" y="215" width="104" height="104" transform="translate(423 111) rotate(90)"/><rect class="cls-17" x="205" y="319" width="104" height="104" transform="translate(628 114) rotate(90)"/><rect class="cls-19" x="309" y="319" width="104" height="104" transform="translate(732 10) rotate(90)"/><rect class="cls-19" x="104" y="319" width="104" height="104" transform="translate(527 215) rotate(90)"/><rect class="cls-18" y="319" width="104" height="104" transform="translate(423 319) rotate(90)"/><rect class="cls-17" y="423" width="104" height="104" transform="translate(527 423) rotate(90)"/><rect class="cls-18" x="104" y="423" width="104" height="104" transform="translate(631 319) rotate(90)"/><rect class="cls-17" x="205" y="423" width="104" height="104" transform="translate(732 218) rotate(90)"/><rect class="cls-18" x="309" y="423" width="104" height="104" transform="translate(836 114) rotate(90)"/><rect class="cls-17" x="410" y="423" width="104" height="104" transform="translate(937 13) rotate(90)"/><rect class="cls-18" x="514" y="423" width="104" height="104" transform="translate(1041 -91) rotate(90)"/><rect class="cls-18" x="205" y="112" width="104" height="104" transform="translate(421 -93) rotate(90)"/><rect class="cls-20" x="101" y="523" width="104" height="104" transform="translate(728 422) rotate(90)"/><rect class="cls-21" y="523" width="104" height="104" transform="translate(627 523) rotate(90)"/><rect class="cls-20" x="306" y="522" width="104" height="104" transform="translate(932 216) rotate(90)"/><rect class="cls-21" x="410" y="522" width="104" height="104" transform="translate(1036 112) rotate(90)"/><rect class="cls-20" y="625" width="104" height="104" transform="translate(729 625) rotate(90)"/><rect class="cls-21" x="104" y="625" width="104" height="104" transform="translate(833 521) rotate(90)"/><rect class="cls-20" x="205" y="729" width="104" height="104" transform="translate(1038 524) rotate(90)"/><rect class="cls-22" x="309" y="729" width="104" height="104" transform="translate(1142 420) rotate(90)"/><rect class="cls-22" x="104" y="729" width="104" height="104" transform="translate(937 625) rotate(90)"/><rect class="cls-21" y="729" width="104" height="104" transform="translate(833 729) rotate(90)"/><rect class="cls-20" y="833" width="104" height="104" transform="translate(937 833) rotate(90)"/><rect class="cls-21" x="104" y="833" width="104" height="104" transform="translate(1041 729) rotate(90)"/><rect class="cls-20" x="205" y="833" width="104" height="104" transform="translate(1142 628) rotate(90)"/><rect class="cls-21" x="309" y="833" width="104" height="104" transform="translate(1246 524) rotate(90)"/><rect class="cls-20" x="410" y="833" width="104" height="104" transform="translate(1347 423) rotate(90)"/><rect class="cls-21" x="514" y="833" width="104" height="104" transform="translate(1451 319) rotate(90)"/><rect class="cls-21" x="205" y="522" width="104" height="104" transform="translate(831 317) rotate(90)"/></g></svg>